<?xml version="1.0" encoding="UTF-8"?>
<!DOCTYPE svg PUBLIC "-//W3C//DTD SVG 1.1//EN" "http://www.w3.org/Graphics/SVG/1.1/DTD/svg11.dtd">
<svg version="1.1" xmlns="http://www.w3.org/2000/svg" xmlns:xlink="http://www.w3.org/1999/xlink" x="0" y="0" width="904" height="1116" viewBox="0, 0, 904, 1116">
  <defs>
    <clipPath id="Clip_1">
      <path d="M0.06,0.89 L903.2,0.89 L903.2,1115.94 L0.06,1115.94 z"/>
    </clipPath>
  </defs>
  <g id="Layer_1">
    <g clip-path="url(#Clip_1)">
      <path d="M699.683,731.407 C697.478,734.392 696.242,730.783 695.264,729.873 C674.178,710.248 653.228,690.478 632.257,670.73 C628.266,666.972 624.299,663.188 620.153,659.256 C627.553,655.528 634.688,652.053 641.692,648.33 C643.692,647.267 644.366,648.36 645.287,649.562 C664.434,674.532 683.582,699.501 702.726,724.473 C705.823,728.513 701.136,729.439 699.683,731.407 z M903.094,470.948 C904.057,450.209 898.408,431.1 888.576,413.158 C871.77,382.489 845.513,362.572 814.034,348.853 C811.196,347.615 810.192,346.541 810.606,343.117 C814.533,310.677 813.898,278.374 807.306,246.251 C804.062,230.438 799.346,215.113 793.059,199.969 C795.704,199.969 797.984,199.856 800.249,199.986 C817.523,200.98 834.449,198.807 851.099,194.329 C859.397,192.098 861.351,187.131 856.993,179.783 C848.703,165.805 838.319,153.467 826.996,141.893 C792.708,106.847 753.25,78.717 710.227,55.534 C642.881,19.245 571.779,-2.249 494.334,1.264 C455.41,3.03 417.191,8.463 380.151,20.908 C333.903,36.447 293.347,61.029 260.059,97.008 C224.33,135.625 201.464,181.123 189.352,232.016 C185.563,247.938 179.92,263.938 183.854,280.893 C184.191,282.348 183.232,284.115 182.836,285.728 C180.692,294.463 179.236,303.327 178.231,312.248 C174.206,348.005 177.778,382.974 189.444,417.058 C189.942,418.513 190.456,419.739 189.575,421.292 C182.507,433.764 182.362,447.425 183.217,461.122 C184.903,488.134 202.086,504.999 228.63,505.815 C231.378,505.9 232.282,506.928 232.989,509.249 C235.311,516.875 237.482,524.57 240.291,532.02 C258.886,581.354 289.758,620.516 335.996,646.838 C336.086,648.307 335.92,648.395 334.066,647.861 C309.568,645.31 285.18,642.028 261.26,635.987 C228.878,627.81 198.394,614.63 168.36,600.317 C165.081,598.755 160.765,597.605 159.133,594.923 C157.876,592.858 160.203,588.707 160.722,585.449 C162.735,572.816 159.728,561.869 149.147,553.97 C138.729,546.191 127.155,544.399 115.304,549.98 C110.889,552.06 109.762,551.236 108.102,547.178 C101.563,531.198 94.791,515.309 87.867,499.491 C81.337,484.574 65.281,477.974 51.054,484.069 C36.451,490.326 30.194,506.465 36.493,521.635 C37.289,523.551 38.104,525.459 39.029,527.654 C26.865,529.101 16.81,533.595 9.719,543.454 C3.702,551.819 0.889,561.366 0.252,571.446 C-1.925,605.896 10.115,635.435 32.466,661.022 C41.227,671.051 51.77,678.518 66.154,677.524 C68.27,677.378 69.536,678.693 70.984,679.742 C93.782,696.248 117.442,711.392 142.253,724.701 C144.602,725.961 146.072,727.598 147.087,730.037 C157.051,753.959 167.086,777.851 177.123,801.741 C183.533,816.997 189.98,832.236 196.424,847.514 C189.385,851.298 188.361,854.266 191.789,861.744 C206.725,894.333 240.222,913.997 277.143,911.851 C335.982,908.431 374.866,846.219 352.214,791.742 C349.716,785.734 345.947,784.059 339.912,786.505 C333.757,789.001 327.67,791.664 321.561,794.272 C284.596,810.048 247.634,825.829 211.145,841.407 C196.719,806.961 182.353,772.661 167.651,737.556 C182.939,744.534 197.383,750.447 212.429,754.742 C260.872,768.569 310.386,773.294 360.581,771.649 C365.669,771.482 366.562,772.938 366.394,777.581 C365.89,791.556 365.729,805.548 365.673,819.534 C365.539,852.676 366.156,885.809 367.389,918.928 C367.479,921.347 367.395,922.461 364.526,922.681 C353.577,923.521 342.628,924.464 331.719,925.723 C306.414,928.646 281.272,932.563 256.987,940.564 C240.546,945.981 224.417,952.069 217.771,970.437 C216.896,972.857 215.625,971.649 214.318,971.023 C206.379,967.218 198.48,963.327 190.475,959.668 C184.87,957.107 179.389,957.55 174.618,961.681 C166.458,968.747 168.382,981.05 178.452,986.017 C189.921,991.673 201.415,997.288 213.027,1002.64 C216.373,1004.19 217.438,1006.04 217.417,1009.76 C217.236,1042.08 217.314,1074.41 217.311,1106.74 C217.311,1110.89 218.435,1114.5 222.937,1115.58 C228.365,1116.89 231.011,1115.21 233.253,1109.67 C234.554,1106.53 234.694,1103.23 234.691,1099.88 C234.655,1066.4 234.661,1032.93 234.697,999.449 C234.699,997.266 233.627,993.629 238.306,995.938 C254.743,1004.05 272.39,1008.36 290.208,1011.92 C333.959,1020.65 378.346,1022.87 422.79,1024.13 C434.586,1024.46 446.407,1023.81 458.216,1023.46 C478.024,1022.89 497.787,1022.01 517.508,1020.18 C546.732,1017.47 575.742,1013.47 604.028,1005.29 C612.357,1002.88 620.6,1000.217 628.326,996.209 C630.622,995.018 631.753,995.325 631.582,998.133 C631.521,999.128 631.566,1000.131 631.566,1001.13 C631.565,1033.94 631.554,1066.75 631.586,1099.56 C631.588,1102.35 631.097,1105.28 633.035,1107.74 C633.636,1111.82 635.415,1115.01 639.858,1115.62 C646.462,1116.54 649.551,1113.6 649.557,1106.43 C649.588,1074.12 649.64,1041.8 649.473,1009.48 C649.455,1005.92 650.655,1004.19 653.717,1002.76 C665.444,997.268 677.123,991.666 688.717,985.897 C696.685,981.933 699.6,973.623 695.965,966.22 C692.353,958.865 683.912,956.146 675.914,959.9 C668.397,963.43 660.934,967.076 653.482,970.743 C651.332,971.8 650.04,972.494 648.747,969.273 C645.249,960.559 639.411,953.728 630.904,949.283 C625.291,946.351 619.557,943.737 613.557,941.763 C611.007,940.924 609.736,939.883 610.176,936.885 C610.729,933.115 610.79,929.264 610.917,925.443 C611.488,908.318 612.006,891.192 612.543,874.066 C612.611,872.07 612.578,870.072 612.579,868.075 C612.583,857.844 612.581,857.931 602.276,857.968 C599.239,857.979 597.662,859.193 598.171,862.07 C599.593,870.11 597.602,877.592 594.939,885.018 C595.182,898.679 593.733,912.281 593.725,925.929 C593.72,933.835 593.341,934.174 585.886,932.532 C559.322,926.68 532.405,923.383 505.314,921.376 C502.599,921.174 501.551,920.588 501.895,917.513 C502.755,909.84 497.601,903.235 490.622,902.485 C483.274,901.695 476.623,906.733 476.151,914.437 C475.871,919.017 473.886,919.415 470.219,919.39 C454.239,919.281 438.289,917.558 422.299,918.359 C411.327,918.908 400.366,919.53 389.369,919.422 C386.095,919.39 384.341,918.651 384.455,915.003 C384.664,908.343 383.624,901.676 383.659,895.074 C383.887,852.108 382.314,809.128 384.421,766.174 C384.519,764.176 384.542,762.172 384.22,760.189 C383.02,752.811 376.96,749.484 370.171,752.632 C368.003,753.637 365.886,754.332 363.491,754.357 C334.841,754.66 306.235,754.379 277.767,750.396 C244.124,745.689 211.197,738.477 180.185,724.077 C173.988,721.199 167.799,718.284 161.865,714.91 C156.709,711.978 155.675,707.407 158.888,703.381 C166.34,694.044 167.482,683.749 163.228,672.841 C157.597,658.405 151.183,644.293 145.117,630.037 C141.396,621.292 141.677,622.711 147.821,616.466 C152.363,611.849 152.337,611.854 158.339,614.825 C181.809,626.443 205.886,636.647 230.655,645.127 C274.081,659.993 319.28,664.883 364.708,667.903 C377.617,668.761 390.1,670.826 402.436,674.444 C405.356,675.3 406.29,676.739 406.095,679.843 C405.356,691.629 404.492,703.409 403.865,715.199 C403.439,723.208 407.528,727.401 415.276,727.989 C417.769,728.178 420.273,728.033 422.771,728.081 C427.752,728.177 427.949,728.462 425.689,732.695 C423.414,736.956 420.837,741.051 418.535,745.297 C415.683,750.56 416.38,755.45 420.608,759.367 C432.213,770.115 443.793,780.888 455.05,792.003 C457.54,794.462 460.3,796.646 463.101,798.726 C467.945,802.324 473.862,800.935 476.726,795.739 C478.904,791.788 477.803,787.825 473.74,783.712 C463.204,773.043 451.859,763.225 441.245,752.635 C438.78,750.176 438.409,748.303 440.156,745.311 C443.935,738.84 447.711,732.362 451.213,725.73 C456.298,716.099 452.311,709.438 441.321,709.363 C436.823,709.332 432.324,709.337 427.826,709.354 C424.99,709.365 423.34,708.269 423.509,705.244 C423.92,697.94 424.45,690.643 424.958,683.345 C425.158,680.463 426.736,679.273 429.706,679.889 C434.439,680.871 439.26,681.43 444.059,681.814 C447.973,682.128 449.83,683.894 451.227,687.451 C460.114,710.092 468.955,732.752 477.758,755.426 C479.545,760.029 481.746,763.938 487.49,763.945 C493.007,763.952 495.827,760.704 497.709,755.95 C501.45,746.502 505.435,737.151 509.372,727.783 C515.051,714.268 520.56,700.683 526.345,687.212 C527.341,684.894 528.328,682.426 531.358,682.255 C537.026,681.936 542.606,680.964 548.2,680.111 C551.4,679.623 552.71,680.936 553.123,684.047 C554.046,690.987 553.642,698.013 554.686,704.943 C555.168,708.146 553.459,709.436 550.297,709.378 C545.468,709.291 540.634,709.297 535.803,709.376 C525.818,709.54 521.694,716.523 526.57,725.204 C530.16,731.593 533.519,738.124 537.429,744.32 C539.716,747.945 539.185,750.419 536.126,753.394 C525.74,763.496 515.073,773.296 504.548,783.247 C499.551,787.971 498.764,793.002 502.523,797.272 C506.627,801.934 511.694,801.951 516.926,797.249 C530.798,784.78 544.209,771.82 557.616,758.857 C561.782,754.829 562.277,751.678 559.844,746.241 C558.343,742.886 556.338,739.807 554.587,736.59 C549.988,728.142 550.004,728.133 559.413,728.074 C560.246,728.069 561.079,728.08 561.911,728.044 C570.658,727.671 575.005,723.364 574.334,714.737 C573.456,703.459 572.994,692.152 571.949,680.893 C571.629,677.443 572.325,675.593 575.92,674.823 C583.416,673.218 590.761,670.973 598.042,668.6 C601.761,667.388 604.228,668.339 606.957,670.903 C614.723,678.201 622.292,685.711 630.113,692.941 C649.062,710.455 667.791,728.204 686.642,745.82 C697.462,755.932 699.894,756.235 710.321,745.903 C714.36,741.9 714.414,741.86 717.755,746.265 C730.037,762.46 742.453,778.55 754.831,794.671 C759.15,800.297 759.347,801.093 754.181,805.883 C746.498,813.006 738.684,819.97 730.329,826.377 C716.487,836.991 702.736,838.576 687.36,829.511 C675.579,822.565 663.921,815.509 652.758,807.613 C650.405,805.948 648.24,803.458 644.789,804.237 C643.566,811.444 645.432,818.309 647.101,825.195 C648.081,825.82 649.075,826.423 650.038,827.073 C664.11,836.581 678.369,845.746 694.569,851.346 C704.594,854.812 714.279,854.584 724.083,849.906 C741.061,841.805 755.015,829.866 767.938,816.556 C770.347,814.076 771.376,813.744 773.633,816.772 C783.682,830.252 794.01,843.523 804.247,856.863 C811.646,866.505 818.945,876.226 826.51,885.736 C830.84,891.179 837.441,890.353 840.664,884.191 C841.968,881.696 843.096,879.086 844.059,876.439 C855.839,844.055 855.295,811.241 847.475,778.159 C845.076,768.013 841.573,758.208 838.174,748.313 C841.058,748.179 843.564,748.266 846.007,747.915 C863.387,745.416 873.549,734.323 879.863,718.944 C884.318,708.091 886.136,696.571 887.612,685.012 C889.911,667.021 892.757,649.054 889.097,630.875 C886.247,616.713 881.33,603.562 870.092,593.873 C853.576,579.634 834.369,579.039 814.517,584.36 C795.659,589.414 785.746,603.321 786.929,619.2 C787.033,620.597 786.854,621.759 785.72,622.749 C783.692,624.519 783.314,626.957 782.997,629.498 C781.984,637.624 780.824,645.732 779.641,654.433 C778.602,653.478 778.087,653.087 777.672,652.61 C757.881,629.822 735.595,609.965 709.336,594.857 C706.244,593.078 707.484,591.956 708.889,590.066 C726.544,566.303 738.942,539.953 746.885,511.516 C748.058,507.317 749.466,505.773 754.081,505.762 C773.059,505.715 787.846,495.386 794.695,478.084 C796.893,472.535 797.85,466.679 798.57,460.874 C799.101,460.85 799.325,460.773 799.402,460.847 C799.99,461.409 800.587,461.969 801.11,462.589 C826.503,492.681 859.634,499.6 896.736,494.392 C900.961,493.799 903.439,491.3 903.131,486.438 C902.806,481.294 902.855,476.103 903.094,470.948" fill="#6E4100"/>
    </g>
    <path d="M233.253,1109.67 C233.253,1070.59 233.253,1031.51 233.253,991.62 C247.421,999.495 262.007,1003.96 276.886,1007.43 C301.711,1013.23 326.926,1016.53 352.305,1018.81 C383.839,1021.63 415.442,1022.85 447.07,1022.23 C497.529,1021.23 547.81,1018.11 597.024,1005.67 C609.433,1002.53 621.518,998.428 632.672,992.199 C633.787,993.52 633.438,994.726 633.439,995.839 C633.459,1031.83 633.46,1067.81 633.437,1103.8 C633.437,1105.11 633.175,1106.43 633.035,1107.74 C630.871,1107.79 628.707,1107.87 626.543,1107.87 C497.73,1107.88 368.918,1107.88 240.106,1107.9 C237.713,1107.9 235.016,1107.08 233.253,1109.67" fill="#B7B8B8"/>
    <path d="M612.543,874.066 C612.426,870.12 612.227,866.174 612.225,862.227 C612.224,860.001 611.854,858.962 609.145,859.364 C605.965,859.836 602.678,859.589 599.437,859.654 C599.693,862.737 600.026,865.816 600.189,868.905 C600.504,874.866 598.106,880.184 596.072,885.581 C591.255,898.542 580.426,902.973 568.091,904.811 C561.659,905.77 555.132,905.12 548.746,903.671 C546.943,903.262 545.255,902.589 543.766,901.458 C540.193,898.743 538.846,894.404 540.328,890.338 C541.714,886.535 545.877,884.112 550.411,884.729 C554.687,885.311 558.863,886.483 563.257,886.326 C579.287,885.753 586.996,872.532 579.407,858.452 C577.67,855.229 575.616,852.188 573.737,849.046 C570.653,843.89 570.956,839.007 574.448,835.811 C577.811,832.733 582.561,832.739 587.364,835.678 C589.407,836.929 591.448,839.772 593.846,838.299 C595.823,837.086 594.618,833.966 594.688,831.7 C594.821,827.377 594.626,823.044 594.777,818.721 C594.843,816.85 594.303,814.617 596.676,813.531 C598.895,814.96 598.502,817.283 598.555,819.368 C598.677,824.176 598.58,828.988 598.602,833.799 C598.634,840.733 599.818,842.19 605.336,842.129 C609.817,842.08 610.422,840.96 610.63,834.141 C610.831,827.541 609.768,820.887 611.382,814.345 C614.818,812.901 614.196,815.956 614.297,817.353 C614.691,822.806 614.363,828.284 614.5,833.75 C614.549,835.674 613.534,838.33 615.341,839.349 C617.583,840.614 619.678,838.414 621.518,837.196 C628.657,832.474 631.319,822.114 628.127,812.151 C627.757,808.625 626.166,805.584 624.423,802.582 C620.848,796.425 621.069,794.276 625.73,788.414 C632.296,785.884 636.068,786.784 639.909,792.462 C642.373,796.105 645.188,799.748 645.11,804.55 C646.066,811.404 647.378,818.224 647.102,825.196 C645.819,826.705 646.174,828.662 645.723,830.396 C641.849,845.303 632.089,854.205 617.423,857.857 C613.961,858.719 612.463,860.004 612.797,863.735 C613.101,867.144 612.657,870.62 612.543,874.066" fill="#FF7164"/>
    <path d="M164.67,914.837 C142.782,914.88 126.922,901.312 125.844,882.083 C125.696,879.444 125.643,876.652 126.331,874.147 C127.329,870.514 125.729,870.573 122.952,870.609 C105.181,870.837 90.07,865.336 82.544,848.029 C75.922,832.803 78.152,817.746 87.369,803.894 C90.458,799.252 95.477,798.137 99.377,800.889 C103.041,803.474 103.655,808.389 100.628,812.857 C95.6,820.278 93.821,828.419 95.703,837.088 C98.393,849.48 111.487,856.962 125.282,854.337 C130.409,853.361 135.12,851.457 139.28,848.172 C143.389,844.927 147.387,844.878 150.552,847.733 C153.761,850.629 154.012,854.512 151.331,859.017 C148.867,863.157 146.43,867.314 144.006,871.478 C137.248,883.081 146.394,897.868 159.736,898.709 C164.399,899.003 169.007,898.798 173.624,897.796 C179.859,896.442 183.965,898.683 185.016,903.575 C186.037,908.327 182.866,912.267 176.88,913.507 C172.641,914.386 168.367,915.085 164.67,914.837" fill="#FF7164"/>
    <path d="M335.996,646.838 C336.902,646.913 337.839,647.815 337.432,648.222 C336.418,649.237 335.144,648.564 334.066,647.861 C334.709,647.52 335.353,647.179 335.996,646.838" fill="#B29D83"/>
    <path d="M721.161,535.73 C714.415,553.25 704.66,569.021 693.344,583.913 C691.667,586.12 690.269,584.991 688.676,584.298 C671.946,577.015 654.589,572.073 636.394,570.251 C625.249,569.136 614.108,569.167 603.031,570.896 C593.324,572.412 590.915,578.57 596.881,586.392 C608.188,601.217 619.453,616.077 630.962,630.743 C633.392,633.839 633.09,634.982 629.664,636.752 C603.682,650.178 576.032,658.279 547.243,662.61 C507.276,668.623 467.298,668.504 427.418,661.725 C382.932,654.163 342.278,638.113 308.582,607.09 C286.575,586.829 270.098,562.697 258.892,534.964 C260.783,533.365 260.818,533.288 263.508,534.513 C268.973,537.004 274.586,538.989 280.416,540.501 C288.438,542.582 296.559,543.111 304.681,542.086 C328.57,539.069 351.87,509.462 350.747,487.988 C349.537,464.814 333.417,433.295 303.206,428.661 C287.446,426.244 273.484,430.8 261.473,440.966 C254.607,446.776 248.508,453.407 244.536,461.71 C243.769,463.313 243.162,465.722 240.342,464.768 C231.282,392.688 247.092,326.031 286.513,265.526 C319.607,214.732 367.867,184.362 425.952,168.755 C434.818,166.372 443.788,167.141 452.696,166.305 C454.609,166.125 455.332,167.25 455.872,168.77 C466.89,199.745 486.675,224.999 509.199,248.075 C573.428,313.875 649.58,360.958 736.483,390.753 C739.53,391.798 740.845,393.101 741.271,396.524 C743.856,417.309 743.1,438.034 740.88,458.768 C738.095,459.748 737.55,457.271 736.541,455.793 C732.88,450.426 729.463,444.883 724.376,440.663 C704.459,424.14 679.779,423.644 659.226,439.599 C643.534,451.781 634.807,468.092 632.589,487.663 C630.529,505.84 642.723,526.558 660.358,534.794 C670.486,539.524 681.191,542.531 692.656,542.533 C701.08,542.534 708.773,540.551 716.135,536.705 C717.678,535.899 719.17,534.401 721.161,535.73" fill="#FEF8EA"/>
    <path d="M789.628,369.832 C780.563,343.797 769.192,319.446 754.782,296.596 C706.357,219.804 637.742,172.702 548.181,156.607 C511.772,150.063 475.009,149.326 438.195,150.857 C390.529,152.84 343.995,160.873 299.519,178.805 C264.402,192.963 232.758,212.452 206.453,240.035 C205.701,240.824 205.098,242.052 203.274,241.541 C206.825,227.119 210.824,212.837 216.169,198.945 C241.477,133.168 284.423,83.102 347.898,51.476 C381.421,34.774 417.119,25.323 454.174,20.73 C479.986,17.53 505.859,16.125 531.886,17.575 C571.14,19.761 608.815,28.99 645.276,43.16 C705.459,66.549 759.501,99.949 806.607,144.261 C818.241,155.205 829.044,166.957 838.481,180.651 C828.554,183.297 818.856,184.006 809.124,184.231 C799.612,184.45 790.172,183.566 780.907,181.3 C777.296,180.416 774.292,181.204 771.997,184.127 C769.807,186.916 769.759,189.983 771.439,193.013 C787.756,222.45 794.361,254.462 796.544,287.64 C798.293,314.221 795.675,340.492 790.776,366.59 C790.603,367.516 790.148,368.389 789.628,369.832" fill="#FEFEFE"/>
    <path d="M645.11,804.55 C643.446,801.354 641.926,798.074 640.091,794.981 C636.084,788.227 634.106,787.453 626.32,789.1 C618.702,785.399 611.236,781.563 609.54,772.027 C608.954,768.733 607.144,766.487 603.633,766.344 C599.925,766.193 597.758,768.305 596.982,771.804 C596.22,775.242 596.349,778.74 596.822,782.203 C598.131,791.79 597.299,801.416 597.42,811.024 C597.434,812.192 597.192,813.336 596.437,814.3 C596.391,822.288 596.25,830.278 596.348,838.264 C596.386,841.323 595.568,842.372 592.742,840.669 C590.471,839.301 588.223,837.887 586.035,836.391 C582.267,833.815 578.493,833.581 575.132,836.811 C571.925,839.894 572.054,843.599 574.24,847.284 C576.53,851.144 579.068,854.869 581.174,858.825 C588.572,872.726 580.125,887.066 564.297,887.707 C559.932,887.883 555.677,887.284 551.434,886.38 C546.32,885.29 542.172,887.42 541.128,891.608 C539.87,896.655 542.244,900.606 547.872,901.929 C564.273,905.785 583.566,905.227 596.073,885.581 C596.279,900.907 595.086,916.189 594.623,931.495 C594.528,934.662 594.153,935.982 590.091,935.019 C560.387,927.977 530.151,924.507 499.687,922.363 C498.93,920.979 500.085,919.886 500.408,918.726 C501.827,913.623 500.293,909.481 496.381,906.242 C492.548,903.068 488.136,902.748 483.75,904.93 C479.119,907.232 476.474,911.341 477.465,916.332 C478.339,920.732 476.965,921.05 473.293,920.915 C444.663,919.865 416.025,919.749 387.408,921.266 C383.685,921.463 383.323,919.875 383.259,916.986 C382.878,899.846 382.369,882.708 381.968,865.568 C381.247,834.758 381.912,803.951 382.312,773.145 C382.362,769.322 382.709,765.504 382.854,761.682 C382.982,758.309 382.008,755.415 378.872,753.667 C375.827,751.969 372.748,751.99 369.988,754.16 C368.573,755.272 367.156,755.677 365.425,755.732 C315.576,757.33 266.328,753.321 218.148,739.706 C198.087,734.037 179.143,725.561 160.545,716.234 C157.535,714.724 157.354,711.831 155.827,709.591 C153.472,706.138 156.146,704.663 157.855,702.52 C165.035,693.516 166.334,683.551 161.928,672.994 C155.337,657.198 148.611,641.458 141.76,625.774 C140.477,622.837 139.789,620.732 143.235,618.896 C144.791,618.067 146.312,616.659 147.173,615.133 C149.974,610.167 153.009,610.497 157.827,612.876 C190.489,629.005 223.885,643.349 259.422,652.042 C286.476,658.661 314.023,662.207 341.712,664.687 C355.136,665.889 368.669,666.09 382.025,667.764 C390.189,668.787 398.1,671.791 406.148,673.812 C408.642,674.438 407.973,676.291 407.871,677.807 C407.069,689.76 406.21,701.709 405.327,713.655 C404.602,723.457 406.517,725.67 416.441,726.269 C418.765,726.409 421.095,726.493 423.423,726.542 C425.555,726.588 427.689,726.552 430.68,726.552 C426.869,733.333 423.378,739.486 419.945,745.672 C416.858,751.234 417.281,754.272 421.77,758.514 C435.202,771.206 448.675,783.855 462.097,796.557 C465.343,799.63 468.888,800.884 472.916,798.384 C476.3,796.283 477.144,793.046 476.256,789.235 C475.806,787.308 474.446,786.122 473.12,784.864 C461.763,774.094 450.52,763.199 438.972,752.64 C436.39,750.279 436.471,748.803 438.086,746.108 C442.358,738.981 446.35,731.684 450.394,724.422 C454.744,716.612 451.598,710.829 442.805,710.599 C436.976,710.447 431.138,710.441 425.311,710.602 C422.727,710.674 421.732,709.939 421.931,707.256 C422.587,698.46 423.199,689.658 423.587,680.848 C423.73,677.616 425.19,677.58 427.737,678.01 C433.64,679.005 439.567,680.092 445.525,680.44 C449.362,680.664 450.85,682.348 452.124,685.66 C461.181,709.224 470.449,732.707 479.599,756.236 C480.944,759.692 482.686,762.502 486.816,762.876 C491.838,763.331 494.3,760.532 496.068,756.246 C505.631,733.061 515.453,709.982 524.845,686.728 C526.606,682.369 528.805,680.685 533.469,680.547 C539.262,680.375 545.065,679.391 550.782,678.321 C553.384,677.835 554.348,678.146 554.492,680.893 C554.952,689.698 555.464,698.503 556.196,707.288 C556.436,710.163 555.31,710.633 552.838,710.592 C546.676,710.487 540.504,710.431 534.347,710.665 C526.778,710.953 523.541,716.786 527.202,723.496 C531.343,731.083 535.547,738.644 540.033,746.029 C541.725,748.814 541.551,750.41 539.133,752.638 C527.87,763.016 516.816,773.622 505.633,784.088 C503.098,786.46 501.002,788.991 501.504,792.678 C501.943,795.911 503.893,798.163 506.965,799.233 C510.315,800.398 513.074,799.233 515.576,796.864 C526.938,786.103 538.356,775.4 549.749,764.671 C552.053,762.502 554.341,760.316 556.63,758.131 C560.745,754.205 561.216,751.273 558.405,746.169 C554.968,739.93 551.457,733.732 547.261,726.235 C553.16,726.235 558.175,726.328 563.186,726.213 C570.684,726.039 573.399,723.1 572.905,715.647 C572.102,703.528 571.305,691.407 570.246,679.309 C569.948,675.901 570.712,674.488 574.274,673.653 C582.999,671.606 591.627,669.099 600.188,666.436 C602.656,665.669 604.016,666.06 605.821,667.767 C634.369,694.765 662.989,721.687 691.609,748.608 C697.023,753.701 700.832,753.515 706.167,748.294 C708.963,745.559 711.199,740.308 714.599,740.732 C717.292,741.068 719.408,746.201 721.738,749.237 C734.103,765.352 746.404,781.515 758.866,797.554 C760.628,799.822 760.705,801.001 758.6,803.17 C747.426,814.681 735.58,825.253 721.562,833.313 C713.095,838.182 704.946,838.663 695.929,834.829 C679.4,827.801 664.758,817.762 650.216,807.489 C648.61,806.355 647.248,804.769 645.11,804.55" fill="#FEFEFE"/>
    <path d="M777.761,408.163 C771.976,405.757 766.865,405.447 761.68,405.604 C760.109,405.652 757.836,406.079 758.186,403.46 C758.486,401.217 755.893,398.012 760.066,396.83 C764.073,395.694 766.247,393.099 766.184,388.845 C766.115,384.24 763.275,382.07 759.21,380.946 C730.583,373.027 703.154,361.997 676.551,348.877 C629.418,325.632 585.901,296.963 546.642,261.941 C524.2,241.921 503.553,220.292 486.97,195.05 C481.753,187.109 477.226,178.793 473.47,170.044 C472.159,166.992 472.994,166.396 476.002,166.441 C507.69,166.917 539.1,169.599 569.887,177.659 C572.711,178.399 574.475,179.709 575.884,182.252 C605.733,236.102 643.068,284.177 687.695,326.575 C701.221,339.425 715.505,351.403 730.458,362.575 C737.325,367.706 741.945,368.065 745.273,363.676 C748.714,359.139 747.216,354.946 740.339,349.761 C682.098,305.852 635.909,251.28 598.277,189.143 C597.938,188.584 597.74,187.94 597.466,187.314 C599.113,186.109 600.412,187.411 601.64,187.888 C633.779,200.373 662.766,217.954 688.237,241.298 C729.063,278.714 756.735,324.497 775.019,376.409 C776.66,381.068 774.607,385.226 775.381,389.6 C775.902,392.541 775.988,395.556 776.359,398.526 C776.724,401.449 777.202,404.358 777.761,408.163" fill="#DAA783"/>
    <path d="M830.914,865.145 C759.299,771.774 688.3,679.205 616.792,585.973 C625.915,585.043 634.218,585.927 642.47,587.266 C682.226,593.714 714.843,613.77 743.814,640.686 C764.048,659.484 781.032,681.007 796.48,703.806 C798.364,706.586 799.632,709.502 800.352,712.872 C801.762,719.474 804.68,725.667 809.472,730.38 C815.386,736.196 818.606,743.356 821.639,750.738 C832.328,776.758 838.336,803.69 836.882,831.964 C836.32,842.911 834.707,853.736 830.914,865.145" fill="#B7B8B8"/>
    <path d="M605.522,986.482 C601.983,985.526 598.63,984.557 595.245,983.716 C566.587,976.597 537.415,972.955 508.034,970.52 C472.474,967.572 436.861,966.885 401.237,968.13 C356.458,969.696 311.884,973.335 268.291,984.653 C259.834,986.849 242.329,980.647 236.888,973.718 C234.701,970.933 236.123,969.14 238.163,967.42 C242.279,963.95 247.012,961.526 251.967,959.506 C271.052,951.725 291.12,947.844 311.347,944.66 C365.354,936.16 419.759,934.934 474.222,936.996 C514.81,938.532 555.247,942.286 594.732,952.711 C604.548,955.303 614.246,958.341 623.108,963.465 C625.397,964.789 627.547,966.416 629.56,968.14 C631.433,969.745 631.992,971.873 629.999,973.78 C623.053,980.425 614.154,983.325 605.522,986.482" fill="#B7B8B8"/>
    <path d="M240.342,464.768 C242.944,464.152 243.061,461.598 244.059,459.815 C250.384,448.515 258.993,439.364 270.368,433.24 C294.417,420.293 322.138,427.07 337.908,449.339 C345.139,459.55 350.076,470.836 351.84,483.133 C353.647,495.725 349.373,507.073 342.081,517.29 C332.96,530.067 322.021,540.639 305.816,543.215 C291.123,545.55 277.122,542.254 263.714,536.072 C262.265,535.404 260.929,533.379 258.893,534.965 C249.864,514.382 244.551,492.773 241.129,470.644 C240.827,468.691 240.603,466.727 240.342,464.768" fill="#FFD5BA"/>
    <path d="M721.161,535.73 C717.583,537.419 714.084,539.309 710.411,540.759 C698.977,545.272 687.343,544.486 675.686,541.686 C654.629,536.629 639.502,524.934 632.914,503.594 C629.126,491.326 631.524,479.573 636.17,468.202 C643.523,450.207 655.587,436.453 674.319,429.89 C697.483,421.774 720.139,429.628 734.192,449.815 C736.312,452.86 737.425,456.708 740.88,458.767 C737.836,485.326 732.184,511.216 721.161,535.73" fill="#FFD5BA"/>
    <path d="M357.991,178.679 C306.913,206.848 271.189,248.733 248.283,301.931 C235.048,332.666 227.024,364.828 223.013,398.018 C222.093,405.63 222.087,405.629 214.124,405.615 C210.697,398.596 210.313,390.859 209.13,383.359 C206.744,368.229 205.248,352.954 205.75,337.64 C206.68,309.249 210.726,281.312 219.59,254.202 C220.477,251.49 221.623,248.94 223.345,246.659 C228.522,239.66 235.516,234.605 242.296,229.411 C276.498,203.205 315.35,187.223 357.086,177.688 C358.101,177.368 358.324,177.769 357.991,178.679" fill="#DAA783"/>
    <path d="M209.024,859.813 C221.964,854.289 234.783,848.826 247.595,843.347 C276.782,830.865 305.982,818.413 335.128,805.837 C338.384,804.433 339.887,804.41 340.862,808.443 C348.939,841.847 330.533,877.448 298.108,890.744 C265.746,904.014 227.61,891.527 210.084,861.915 C209.754,861.357 209.497,860.756 209.024,859.813" fill="#D1D2D2"/>
    <path d="M875.788,479.854 C858.266,479.908 841.803,475.968 827.413,465.523 C809.024,452.175 800.007,433.092 795.085,411.618 C794.872,410.689 794.657,409.431 795.092,408.731 C802.132,397.405 802.887,384.223 805.954,371.758 C808.035,363.299 807.654,363.137 815.61,367.164 C843.878,381.474 866.762,401.206 879.42,431.081 C885.402,445.2 887.977,460.005 888.15,475.318 C888.19,478.808 887.192,480.122 883.756,479.889 C881.111,479.71 878.445,479.854 875.788,479.854" fill="#FEFEFE"/>
    <path d="M834.4,597.572 C855.538,597.545 868.589,609.474 873.097,632.372 C875.882,646.516 874.747,660.527 872.803,674.582 C871.277,685.612 870.245,696.738 866.917,707.439 C865.031,713.506 862.534,719.289 858.279,724.151 C850.366,733.193 839.539,734.625 829.779,727.744 C823.069,723.013 818.045,716.919 815.886,708.836 C814.383,703.209 815.881,700.905 821.659,699.531 C822.947,699.224 824.269,698.96 825.586,698.9 C830.027,698.696 832.888,696.405 833.654,692.146 C834.44,687.776 832.1,684.829 828.17,683.161 C824.304,681.52 820.736,679.404 817.621,676.612 C809.963,669.746 811.222,662.833 820.916,659.531 C825.772,657.877 830.854,656.856 835.872,655.721 C840.191,654.745 842.719,652.137 842.811,647.805 C842.898,643.68 840.5,640.987 836.532,639.826 C829.204,637.683 821.711,636.047 814.735,632.82 C808.057,629.73 802.727,625.676 802.879,617.268 C803.034,608.667 808.18,603.978 815.39,600.983 C821.44,598.471 827.826,597.389 834.4,597.572" fill="#FEF8EA"/>
    <path d="M16.015,579.374 C15.769,572.933 16.663,566.206 19.107,559.733 C22.593,550.501 29.096,544.984 39.043,543.938 C45.597,543.248 52.02,544.093 58.17,546.432 C66.912,549.755 70.371,556.629 67.658,565.62 C64.945,574.612 59.309,581.484 51.17,586.113 C47.19,588.377 44.282,591.122 45.342,595.974 C46.465,601.11 50.613,602.54 55.243,602.597 C59.727,602.653 64.216,602.324 68.703,602.18 C71.027,602.106 73.381,601.822 75.67,602.083 C77.736,602.32 80.478,602.309 81.235,604.66 C81.875,606.648 79.417,607.56 78.21,608.755 C73.954,612.971 69.595,617.088 65.151,621.104 C62.058,623.9 61.066,627.279 62.516,631.009 C64.047,634.948 67.459,636.217 71.493,635.692 C78.128,634.83 84.764,634.346 91.364,635.776 C94.078,636.364 97.255,636.737 98.323,639.854 C99.487,643.252 97.746,646.039 95.363,648.312 C86.133,657.116 74.904,661.279 62.342,661.43 C56.159,661.503 51.546,657.328 47.357,653.243 C35.079,641.269 26.89,626.691 21.235,610.663 C17.729,600.726 15.794,590.437 16.015,579.374" fill="#FEF8EA"/>
    <path d="M297.742,995.414 C337.751,980.283 535.922,980.35 569.984,995.685 C478.282,1009.85 387.984,1009.77 297.742,995.414" fill="#FFCF71"/>
    <path d="M223.345,246.659 C218.115,263.625 213.501,280.72 210.822,298.324 C205.65,332.311 206.462,366.093 213.597,399.718 C214.014,401.682 214.479,403.601 214.123,405.616 C213.296,405.703 212.453,405.72 211.643,405.891 C208.934,406.462 204.918,408.452 203.823,407.394 C201.821,405.459 201.402,401.775 200.578,398.75 C188.851,355.671 190.336,312.888 203.542,270.38 C204.187,268.304 205.079,266.379 206.503,264.681 C211.796,258.371 216.543,251.557 223.345,246.659" fill="#FEFEFE"/>
    <path d="M99.928,607.841 C101.909,611.174 103.445,614.126 105.324,616.841 C108.997,622.149 114.088,625.803 120.502,626.322 C124.294,626.628 125.473,628.372 126.722,631.353 C133.21,646.84 139.859,662.26 146.506,677.679 C148.139,681.466 149.161,685.252 147.331,689.221 C145.26,693.711 141.534,696.288 136.757,696.435 C131.721,696.589 127.714,694.009 125.651,689.329 C120.956,678.683 116.551,667.91 111.878,657.254 C111.016,655.288 111.5,653.834 112.244,652.092 C118.333,637.823 113.612,626.673 99.284,621.308 C94.26,619.426 93.443,616.649 96.641,612.55 C97.75,611.129 98.713,609.593 99.928,607.841" fill="#FF7164"/>
    <path d="M96.709,597.157 C93.138,592.478 88.632,589.49 83.365,587.045 C80.192,585.572 78.246,581.89 80.142,577.854 C82.209,573.455 83.808,568.931 84.176,564.067 C85.454,547.195 77.723,535.633 61.412,530.581 C58.158,529.573 56.411,527.904 55.312,524.89 C54.004,521.305 52.317,517.86 50.966,514.29 C48.493,507.75 51.339,501.419 57.807,498.79 C63.539,496.461 70.131,499.051 72.742,505.084 C81.253,524.751 89.599,544.489 98.014,564.198 C98.605,565.58 99.02,566.829 98.412,568.456 C94.934,577.774 95.523,587.343 96.709,597.157" fill="#FF7164"/>
    <path d="M752.376,489.603 C756.682,468.118 758.769,446.67 758.859,425.038 C758.87,422.491 759.531,421.63 762.172,421.526 C771.138,421.171 777.04,424.42 779.879,432.965 C784.418,446.629 784.43,460.503 778.912,473.92 C774.606,484.389 764.606,490.082 752.376,489.603" fill="#FEF8EA"/>
    <path d="M199.011,452.708 C198.816,444.896 199.464,437.811 202.56,431.168 C205.61,424.622 210.727,421.461 218.031,421.518 C220.836,421.54 221.679,422.339 221.683,425.167 C221.706,440.982 222.79,456.733 225.16,472.379 C225.857,476.98 226.271,481.675 227.532,486.124 C228.76,490.458 226.549,490.061 223.852,489.59 C212.322,487.576 204.592,481.155 201.159,469.846 C199.404,464.068 198.707,458.144 199.011,452.708" fill="#FEF8EA"/>
    <path d="M145.206,578.992 C144.511,588.675 141.41,597.423 134.866,604.772 C132.859,607.026 130.4,608.683 127.549,609.788 C123.341,611.421 119.968,610.441 117.776,606.519 C112.135,596.423 110.023,585.686 113.396,574.447 C115.427,567.681 120.311,563.411 127.554,563.009 C134.325,562.633 139.731,565.54 143.502,571.336 C145.046,573.708 145.325,576.263 145.206,578.992" fill="#FEF8EA"/>
    <path d="M468.139,682.724 C482.093,682.724 495.363,682.724 509.191,682.724 C502.211,699.482 495.364,715.921 488.027,733.535 C481.172,716.022 474.762,699.646 468.139,682.724" fill="#FEF8EA"/>
    <path d="M88.149,672.353 C98.315,666.399 98.321,666.396 102.637,676.433 C103.538,678.528 104.372,680.651 105.845,684.245 C99.279,679.832 93.95,676.251 88.149,672.353" fill="#FCFBFA"/>
    <path d="M357.991,178.679 C357.69,178.349 357.388,178.019 357.087,177.688 C358.061,176.775 359.28,176.152 360.192,177.362 C360.459,177.716 358.904,178.441 357.991,178.679" fill="#A47444"/>
    <path d="M596.437,814.3 C596.045,800.829 595.591,787.359 595.291,773.886 C595.164,768.191 598.019,764.877 602.843,764.621 C607.805,764.358 611.084,767.641 611.182,773.53 C611.224,776.007 612.172,777.509 613.975,778.942 C618.144,782.256 622.208,785.703 626.318,789.098 C622.495,793.665 622.238,798.127 626.073,802.995 C627.971,805.402 629.66,808.259 628.962,811.707 C625.579,811.825 623.772,809.132 621.445,807.418 C618.388,805.168 615.514,802.673 612.344,800.199 C612.181,799.822 611.831,800.914 612.279,800.42 C613.67,798.882 613.849,809.626 612.509,814.274 C612.405,822.258 612.039,830.25 612.304,838.222 C612.44,842.298 610.803,843.61 607.186,843.569 C606.353,843.559 605.519,843.597 604.687,843.572 C596.994,843.338 597.134,843.332 596.951,835.624 C596.783,828.516 597.722,821.379 596.437,814.3" fill="#6E4100"/>
    <path d="M612.509,814.274 C612.509,809.322 612.509,804.37 612.509,798.798 C618.047,803.143 623.505,807.425 628.962,811.708 C635.51,823.678 627.211,839.726 612.509,842.16 C612.509,832.783 612.509,823.529 612.509,814.274" fill="#FDFDFD"/>
    <path d="M335.122,433.319 C335.732,422.302 340.063,413.046 348.659,406.037 C350.933,404.183 351.874,403.287 349.568,400.461 C344.783,394.598 343.077,387.462 342.97,379.944 C342.911,375.788 344.862,373.073 349.047,372.931 C352.96,372.799 354.992,375.146 355.357,379.149 C355.674,382.611 355.963,386.123 357.422,389.379 C360.075,395.297 364.004,397.806 370.344,397.596 C385.82,397.085 399.098,407.436 402.218,422.443 C403.189,427.116 401.069,431.017 396.853,432.314 C392.715,433.586 388.417,431.583 387.017,427.016 C383.668,416.091 376.518,412.592 368.761,413.818 C359.172,415.333 351.64,423.95 351.155,434.002 C351.058,436.005 351.227,438.036 349.99,439.769 C347.732,442.931 344.702,444.408 340.89,443.192 C336.127,441.673 334.765,437.962 335.122,433.319" fill="#6E4100"/>
    <path d="M644.092,433.548 C644.118,439.935 641.36,443.491 636.31,443.582 C631.248,443.674 628.347,440.242 628.093,433.864 C627.704,424.098 620.478,415.646 610.983,413.851 C604.022,412.535 598.107,415.295 594.666,421.594 C593.797,423.185 593.225,424.941 592.554,426.636 C590.661,431.41 586.668,433.649 582.416,432.299 C578.069,430.919 575.862,426.846 577.236,421.87 C579.18,414.828 582.665,408.526 588.633,404.17 C591.534,402.053 591.337,400.709 589.554,398.042 C585.951,392.656 584.746,386.446 584.584,380.032 C584.48,375.915 586.376,373.064 590.559,372.926 C594.674,372.79 596.902,375.373 597.09,379.526 C597.279,383.721 597.885,387.817 600.183,391.439 C602.574,395.208 605.406,397.624 610.501,397.876 C628.861,398.785 644.016,415.183 644.092,433.548" fill="#6E4100"/>
    <path d="M493.418,576.693 C472.387,575.82 454.114,571.094 440.651,554.928 C438.194,551.978 436.137,548.766 434.728,545.158 C433.435,541.849 434.258,539.156 437.309,537.507 C440.591,535.732 443.92,536.459 445.363,539.855 C455.183,562.954 490.632,568.839 510.881,561.58 C520.62,558.088 528.286,552.002 533.389,542.849 C535.706,538.692 539.223,537.295 542.309,539.367 C546.151,541.947 545.908,545.398 543.82,548.984 C534.831,564.424 521.156,572.895 503.756,575.678 C499.987,576.281 496.146,576.434 493.418,576.693" fill="#6E4100"/>
    <path d="M390.147,263.477 C390.032,266.163 388.835,267.692 386.83,268.471 C384.769,269.272 382.934,268.626 381.356,267.121 C372.142,258.333 366.157,258.872 359.073,269.132 C357.457,271.472 355.347,272.496 352.649,271.275 C349.977,270.066 349.228,267.85 349.977,265.069 C351.812,258.252 360.689,251.883 369.615,250.988 C377.605,250.186 386.087,254.515 389.322,261.092 C389.749,261.96 389.963,262.934 390.147,263.477" fill="#6E4100"/>
    <path d="M497.571,439.25 C497.314,441.296 496.692,443.153 494.705,444.165 C492.485,445.296 489.984,445.574 488.167,443.891 C485.021,440.974 482.546,437.394 481.217,433.278 C480.524,431.134 481.391,429.02 483.281,427.562 C485.143,426.126 487.24,425.929 489.381,426.742 C491.943,427.714 497.645,436.53 497.571,439.25" fill="#6F4300"/>
    <path d="M477.276,847.464 C477.212,840.738 482.465,835.485 489.193,835.546 C495.666,835.606 500.871,840.775 500.944,847.216 C501.019,853.799 495.543,859.263 488.947,859.186 C482.497,859.112 477.337,853.929 477.276,847.464" fill="#6E4100"/>
  </g>
</svg>
